<svg width="108" height="30" viewBox="0 0 108 30" fill="none" xmlns="http://www.w3.org/2000/svg">
<path d="M5.696 24V6.432L1.792 7.392L0.768 3.36L7.2 1.44H10.56V24H5.696ZM32.348 21.088C30.492 23.2853 28.092 24.384 25.148 24.384C22.204 24.384 19.8147 23.2853 17.98 21.088C16.1453 18.8907 15.228 16.128 15.228 12.8C15.228 9.49333 16.156 6.74133 18.012 4.544C19.868 2.32533 22.268 1.216 25.212 1.216C28.1347 1.216 30.5133 2.31467 32.348 4.512C34.204 6.70933 35.132 9.472 35.132 12.8C35.132 16.1067 34.204 18.8693 32.348 21.088ZM21.628 17.92C22.5453 19.264 23.74 19.936 25.212 19.936C26.684 19.936 27.8573 19.2747 28.732 17.952C29.628 16.608 30.076 14.8907 30.076 12.8C30.076 10.752 29.6173 9.056 28.7 7.712C27.7827 6.34667 26.5987 5.664 25.148 5.664C23.6973 5.664 22.524 6.336 21.628 7.68C20.732 9.00267 20.284 10.7093 20.284 12.8C20.284 14.8693 20.732 16.576 21.628 17.92ZM55.723 21.088C53.867 23.2853 51.467 24.384 48.523 24.384C45.579 24.384 43.1897 23.2853 41.355 21.088C39.5203 18.8907 38.603 16.128 38.603 12.8C38.603 9.49333 39.531 6.74133 41.387 4.544C43.243 2.32533 45.643 1.216 48.587 1.216C51.5097 1.216 53.8883 2.31467 55.723 4.512C57.579 6.70933 58.507 9.472 58.507 12.8C58.507 16.1067 57.579 18.8693 55.723 21.088ZM45.003 17.92C45.9203 19.264 47.115 19.936 48.587 19.936C50.059 19.936 51.2323 19.2747 52.107 17.952C53.003 16.608 53.451 14.8907 53.451 12.8C53.451 10.752 52.9923 9.056 52.075 7.712C51.1577 6.34667 49.9737 5.664 48.523 5.664C47.0723 5.664 45.899 6.336 45.003 7.68C44.107 9.00267 43.659 10.7093 43.659 12.8C43.659 14.8693 44.107 16.576 45.003 17.92ZM68.218 20.704V14.944H62.426V10.528H68.218V4.768H72.762V10.528H78.554V14.944H72.762V20.704H68.218Z" fill="#7247FF"/>
<path d="M5.696 24V6.432L1.792 7.392L0.768 3.36L7.2 1.44H10.56V24H5.696ZM32.348 21.088C30.492 23.2853 28.092 24.384 25.148 24.384C22.204 24.384 19.8147 23.2853 17.98 21.088C16.1453 18.8907 15.228 16.128 15.228 12.8C15.228 9.49333 16.156 6.74133 18.012 4.544C19.868 2.32533 22.268 1.216 25.212 1.216C28.1347 1.216 30.5133 2.31467 32.348 4.512C34.204 6.70933 35.132 9.472 35.132 12.8C35.132 16.1067 34.204 18.8693 32.348 21.088ZM21.628 17.92C22.5453 19.264 23.74 19.936 25.212 19.936C26.684 19.936 27.8573 19.2747 28.732 17.952C29.628 16.608 30.076 14.8907 30.076 12.8C30.076 10.752 29.6173 9.056 28.7 7.712C27.7827 6.34667 26.5987 5.664 25.148 5.664C23.6973 5.664 22.524 6.336 21.628 7.68C20.732 9.00267 20.284 10.7093 20.284 12.8C20.284 14.8693 20.732 16.576 21.628 17.92ZM55.723 21.088C53.867 23.2853 51.467 24.384 48.523 24.384C45.579 24.384 43.1897 23.2853 41.355 21.088C39.5203 18.8907 38.603 16.128 38.603 12.8C38.603 9.49333 39.531 6.74133 41.387 4.544C43.243 2.32533 45.643 1.216 48.587 1.216C51.5097 1.216 53.8883 2.31467 55.723 4.512C57.579 6.70933 58.507 9.472 58.507 12.8C58.507 16.1067 57.579 18.8693 55.723 21.088ZM45.003 17.92C45.9203 19.264 47.115 19.936 48.587 19.936C50.059 19.936 51.2323 19.2747 52.107 17.952C53.003 16.608 53.451 14.8907 53.451 12.8C53.451 10.752 52.9923 9.056 52.075 7.712C51.1577 6.34667 49.9737 5.664 48.523 5.664C47.0723 5.664 45.899 6.336 45.003 7.68C44.107 9.00267 43.659 10.7093 43.659 12.8C43.659 14.8693 44.107 16.576 45.003 17.92ZM68.218 20.704V14.944H62.426V10.528H68.218V4.768H72.762V10.528H78.554V14.944H72.762V20.704H68.218Z" fill="url(#paint0_linear_75_1260)"/>
<path d="M88.829 16.64V17.94H87.239V22H85.699V17.94H84.109V16.64H88.829ZM89.6585 22V16.64H91.1785V18.41H92.2785C92.9252 18.41 93.4418 18.56 93.8285 18.86C94.2218 19.16 94.4185 19.6 94.4185 20.18C94.4185 20.7467 94.2352 21.1933 93.8685 21.52C93.5085 21.84 93.0052 22 92.3585 22H89.6585ZM92.1285 19.56H91.1785V20.8H92.1385C92.6385 20.8 92.8885 20.5867 92.8885 20.16C92.8885 19.9733 92.8218 19.8267 92.6885 19.72C92.5618 19.6133 92.3752 19.56 92.1285 19.56ZM95.1285 22V16.64H96.6485V22H95.1285ZM100.538 22.12C99.7381 22.12 99.0715 21.85 98.5381 21.31C98.0115 20.77 97.7481 20.11 97.7481 19.33C97.7481 18.5567 98.0148 17.9 98.5481 17.36C99.0815 16.8133 99.7515 16.54 100.558 16.54C101.418 16.54 102.128 16.8533 102.688 17.48L101.798 18.38C101.425 18.0267 101.008 17.85 100.548 17.85C100.175 17.85 99.8648 17.9933 99.6181 18.28C99.3715 18.5667 99.2481 18.9167 99.2481 19.33C99.2481 19.75 99.3715 20.1033 99.6181 20.39C99.8715 20.67 100.201 20.81 100.608 20.81C101.028 20.81 101.438 20.62 101.838 20.24L102.728 21.14C102.435 21.46 102.121 21.7033 101.788 21.87C101.455 22.0367 101.038 22.12 100.538 22.12Z" fill="#7247FF"/>
<path d="M88.829 16.64V17.94H87.239V22H85.699V17.94H84.109V16.64H88.829ZM89.6585 22V16.64H91.1785V18.41H92.2785C92.9252 18.41 93.4418 18.56 93.8285 18.86C94.2218 19.16 94.4185 19.6 94.4185 20.18C94.4185 20.7467 94.2352 21.1933 93.8685 21.52C93.5085 21.84 93.0052 22 92.3585 22H89.6585ZM92.1285 19.56H91.1785V20.8H92.1385C92.6385 20.8 92.8885 20.5867 92.8885 20.16C92.8885 19.9733 92.8218 19.8267 92.6885 19.72C92.5618 19.6133 92.3752 19.56 92.1285 19.56ZM95.1285 22V16.64H96.6485V22H95.1285ZM100.538 22.12C99.7381 22.12 99.0715 21.85 98.5381 21.31C98.0115 20.77 97.7481 20.11 97.7481 19.33C97.7481 18.5567 98.0148 17.9 98.5481 17.36C99.0815 16.8133 99.7515 16.54 100.558 16.54C101.418 16.54 102.128 16.8533 102.688 17.48L101.798 18.38C101.425 18.0267 101.008 17.85 100.548 17.85C100.175 17.85 99.8648 17.9933 99.6181 18.28C99.3715 18.5667 99.2481 18.9167 99.2481 19.33C99.2481 19.75 99.3715 20.1033 99.6181 20.39C99.8715 20.67 100.201 20.81 100.608 20.81C101.028 20.81 101.438 20.62 101.838 20.24L102.728 21.14C102.435 21.46 102.121 21.7033 101.788 21.87C101.455 22.0367 101.038 22.12 100.538 22.12Z" fill="url(#paint1_linear_75_1260)"/>
<defs>
<linearGradient id="paint0_linear_75_1260" x1="50" y1="0" x2="50" y2="30" gradientUnits="userSpaceOnUse">
<stop stop-color="#4614E8"/>
<stop offset="1" stop-color="#BCA7FF"/>
</linearGradient>
<linearGradient id="paint1_linear_75_1260" x1="93.5" y1="12" x2="93.5" y2="27" gradientUnits="userSpaceOnUse">
<stop stop-color="#4614E8"/>
<stop offset="1" stop-color="#BCA7FF"/>
</linearGradient>
</defs>
</svg>
