<svg width="63" height="29" viewBox="0 0 63 29" fill="none" xmlns="http://www.w3.org/2000/svg">
<path d="M5.696 24V6.432L1.792 7.392L0.768 3.36L7.2 1.44H10.56V24H5.696ZM23.26 24.384C20.0173 24.384 17.2227 23.264 14.876 21.024L17.852 17.472C19.644 19.0933 21.4253 19.904 23.196 19.904C24.3693 19.904 25.2867 19.6267 25.948 19.072C26.6093 18.5173 26.94 17.7387 26.94 16.736C26.94 15.7973 26.5773 15.0613 25.852 14.528C25.1267 13.9733 24.1667 13.696 22.972 13.696C21.7773 13.696 20.5293 13.9733 19.228 14.528L16.38 12.64L17.02 1.6H30.78V5.92H21.244L20.988 9.792C22.012 9.536 22.9933 9.408 23.932 9.408C26.2573 9.408 28.1453 10.0053 29.596 11.2C31.0467 12.3947 31.772 14.208 31.772 16.64C31.772 19.008 30.9933 20.896 29.436 22.304C27.9 23.6907 25.8413 24.384 23.26 24.384Z" fill="#7247FF"/>
<path d="M5.696 24V6.432L1.792 7.392L0.768 3.36L7.2 1.44H10.56V24H5.696ZM23.26 24.384C20.0173 24.384 17.2227 23.264 14.876 21.024L17.852 17.472C19.644 19.0933 21.4253 19.904 23.196 19.904C24.3693 19.904 25.2867 19.6267 25.948 19.072C26.6093 18.5173 26.94 17.7387 26.94 16.736C26.94 15.7973 26.5773 15.0613 25.852 14.528C25.1267 13.9733 24.1667 13.696 22.972 13.696C21.7773 13.696 20.5293 13.9733 19.228 14.528L16.38 12.64L17.02 1.6H30.78V5.92H21.244L20.988 9.792C22.012 9.536 22.9933 9.408 23.932 9.408C26.2573 9.408 28.1453 10.0053 29.596 11.2C31.0467 12.3947 31.772 14.208 31.772 16.64C31.772 19.008 30.9933 20.896 29.436 22.304C27.9 23.6907 25.8413 24.384 23.26 24.384Z" fill="url(#paint0_linear_76_1261)"/>
<path d="M41.0895 18.64H45.3995V24H43.8795V19.94H42.5195C42.5195 20.6467 42.4929 21.2433 42.4395 21.73C42.3862 22.2167 42.3129 22.6133 42.2195 22.92C42.1262 23.2267 41.9962 23.4633 41.8295 23.63C41.6629 23.7967 41.4829 23.91 41.2895 23.97C41.0962 24.03 40.8562 24.06 40.5695 24.06C40.2962 24.06 40.0395 24.03 39.7995 23.97L39.8995 22.74C40.0195 22.76 40.1262 22.77 40.2195 22.77C40.3795 22.77 40.5062 22.7333 40.5995 22.66C40.6929 22.58 40.7795 22.4067 40.8595 22.14C40.9462 21.8667 41.0062 21.45 41.0395 20.89C41.0729 20.3233 41.0895 19.5733 41.0895 18.64ZM49.2981 24.12C48.4848 24.12 47.8148 23.8633 47.2881 23.35C46.7615 22.83 46.4981 22.1567 46.4981 21.33C46.4981 20.55 46.7481 19.89 47.2481 19.35C47.7481 18.81 48.3815 18.54 49.1481 18.54C49.9948 18.54 50.6415 18.82 51.0881 19.38C51.5348 19.94 51.7581 20.63 51.7581 21.45C51.7581 21.53 51.7515 21.6633 51.7381 21.85H48.0081C48.0815 22.19 48.2315 22.45 48.4581 22.63C48.6848 22.81 48.9715 22.9 49.3181 22.9C49.7915 22.9 50.2248 22.7167 50.6181 22.35L51.4881 23.12C50.9481 23.7867 50.2181 24.12 49.2981 24.12ZM47.9881 20.9H50.2781C50.2315 20.5533 50.1081 20.2767 49.9081 20.07C49.7148 19.8633 49.4615 19.76 49.1481 19.76C48.8415 19.76 48.5848 19.8633 48.3781 20.07C48.1781 20.27 48.0481 20.5467 47.9881 20.9ZM57.0809 18.64V19.94H55.4909V24H53.9509V19.94H52.3609V18.64H57.0809Z" fill="#7247FF"/>
<path d="M41.0895 18.64H45.3995V24H43.8795V19.94H42.5195C42.5195 20.6467 42.4929 21.2433 42.4395 21.73C42.3862 22.2167 42.3129 22.6133 42.2195 22.92C42.1262 23.2267 41.9962 23.4633 41.8295 23.63C41.6629 23.7967 41.4829 23.91 41.2895 23.97C41.0962 24.03 40.8562 24.06 40.5695 24.06C40.2962 24.06 40.0395 24.03 39.7995 23.97L39.8995 22.74C40.0195 22.76 40.1262 22.77 40.2195 22.77C40.3795 22.77 40.5062 22.7333 40.5995 22.66C40.6929 22.58 40.7795 22.4067 40.8595 22.14C40.9462 21.8667 41.0062 21.45 41.0395 20.89C41.0729 20.3233 41.0895 19.5733 41.0895 18.64ZM49.2981 24.12C48.4848 24.12 47.8148 23.8633 47.2881 23.35C46.7615 22.83 46.4981 22.1567 46.4981 21.33C46.4981 20.55 46.7481 19.89 47.2481 19.35C47.7481 18.81 48.3815 18.54 49.1481 18.54C49.9948 18.54 50.6415 18.82 51.0881 19.38C51.5348 19.94 51.7581 20.63 51.7581 21.45C51.7581 21.53 51.7515 21.6633 51.7381 21.85H48.0081C48.0815 22.19 48.2315 22.45 48.4581 22.63C48.6848 22.81 48.9715 22.9 49.3181 22.9C49.7915 22.9 50.2248 22.7167 50.6181 22.35L51.4881 23.12C50.9481 23.7867 50.2181 24.12 49.2981 24.12ZM47.9881 20.9H50.2781C50.2315 20.5533 50.1081 20.2767 49.9081 20.07C49.7148 19.8633 49.4615 19.76 49.1481 19.76C48.8415 19.76 48.5848 19.8633 48.3781 20.07C48.1781 20.27 48.0481 20.5467 47.9881 20.9ZM57.0809 18.64V19.94H55.4909V24H53.9509V19.94H52.3609V18.64H57.0809Z" fill="url(#paint1_linear_76_1261)"/>
<defs>
<linearGradient id="paint0_linear_76_1261" x1="24.5" y1="0" x2="24.5" y2="29" gradientUnits="userSpaceOnUse">
<stop stop-color="#4614E8"/>
<stop offset="1" stop-color="#BCA7FF"/>
</linearGradient>
<linearGradient id="paint1_linear_76_1261" x1="48.5" y1="14" x2="48.5" y2="29" gradientUnits="userSpaceOnUse">
<stop stop-color="#4614E8"/>
<stop offset="1" stop-color="#BCA7FF"/>
</linearGradient>
</defs>
</svg>
