<svg width="61" height="24" viewBox="0 0 61 24" fill="none" xmlns="http://www.w3.org/2000/svg">
<path d="M8.76 23.384C5.51733 23.384 2.72267 22.264 0.376 20.024L3.352 16.472C5.144 18.0933 6.92533 18.904 8.696 18.904C9.86933 18.904 10.7867 18.6267 11.448 18.072C12.1093 17.5173 12.44 16.7387 12.44 15.736C12.44 14.7973 12.0773 14.0613 11.352 13.528C10.6267 12.9733 9.66667 12.696 8.472 12.696C7.27733 12.696 6.02933 12.9733 4.728 13.528L1.88 11.64L2.52 0.599998H16.28V4.92H6.744L6.488 8.792C7.512 8.536 8.49333 8.408 9.432 8.408C11.7573 8.408 13.6453 9.00533 15.096 10.2C16.5467 11.3947 17.272 13.208 17.272 15.64C17.272 18.008 16.4933 19.896 14.936 21.304C13.4 22.6907 11.3413 23.384 8.76 23.384ZM38.0043 20.088C36.1483 22.2853 33.7483 23.384 30.8043 23.384C27.8603 23.384 25.4709 22.2853 23.6363 20.088C21.8016 17.8907 20.8843 15.128 20.8843 11.8C20.8843 8.49333 21.8123 5.74133 23.6683 3.544C25.5243 1.32533 27.9243 0.216 30.8683 0.216C33.7909 0.216 36.1696 1.31467 38.0043 3.512C39.8603 5.70933 40.7883 8.472 40.7883 11.8C40.7883 15.1067 39.8603 17.8693 38.0043 20.088ZM27.2843 16.92C28.2016 18.264 29.3963 18.936 30.8683 18.936C32.3403 18.936 33.5136 18.2747 34.3883 16.952C35.2843 15.608 35.7323 13.8907 35.7323 11.8C35.7323 9.752 35.2736 8.056 34.3563 6.712C33.4389 5.34667 32.2549 4.664 30.8043 4.664C29.3536 4.664 28.1803 5.336 27.2843 6.68C26.3883 8.00267 25.9403 9.70933 25.9403 11.8C25.9403 13.8693 26.3883 15.576 27.2843 16.92ZM50.4993 19.704V13.944H44.7073V9.528H50.4993V3.768H55.0433V9.528H60.8353V13.944H55.0433V19.704H50.4993Z" fill="#7247FF"/>
<path d="M8.76 23.384C5.51733 23.384 2.72267 22.264 0.376 20.024L3.352 16.472C5.144 18.0933 6.92533 18.904 8.696 18.904C9.86933 18.904 10.7867 18.6267 11.448 18.072C12.1093 17.5173 12.44 16.7387 12.44 15.736C12.44 14.7973 12.0773 14.0613 11.352 13.528C10.6267 12.9733 9.66667 12.696 8.472 12.696C7.27733 12.696 6.02933 12.9733 4.728 13.528L1.88 11.64L2.52 0.599998H16.28V4.92H6.744L6.488 8.792C7.512 8.536 8.49333 8.408 9.432 8.408C11.7573 8.408 13.6453 9.00533 15.096 10.2C16.5467 11.3947 17.272 13.208 17.272 15.64C17.272 18.008 16.4933 19.896 14.936 21.304C13.4 22.6907 11.3413 23.384 8.76 23.384ZM38.0043 20.088C36.1483 22.2853 33.7483 23.384 30.8043 23.384C27.8603 23.384 25.4709 22.2853 23.6363 20.088C21.8016 17.8907 20.8843 15.128 20.8843 11.8C20.8843 8.49333 21.8123 5.74133 23.6683 3.544C25.5243 1.32533 27.9243 0.216 30.8683 0.216C33.7909 0.216 36.1696 1.31467 38.0043 3.512C39.8603 5.70933 40.7883 8.472 40.7883 11.8C40.7883 15.1067 39.8603 17.8693 38.0043 20.088ZM27.2843 16.92C28.2016 18.264 29.3963 18.936 30.8683 18.936C32.3403 18.936 33.5136 18.2747 34.3883 16.952C35.2843 15.608 35.7323 13.8907 35.7323 11.8C35.7323 9.752 35.2736 8.056 34.3563 6.712C33.4389 5.34667 32.2549 4.664 30.8043 4.664C29.3536 4.664 28.1803 5.336 27.2843 6.68C26.3883 8.00267 25.9403 9.70933 25.9403 11.8C25.9403 13.8693 26.3883 15.576 27.2843 16.92ZM50.4993 19.704V13.944H44.7073V9.528H50.4993V3.768H55.0433V9.528H60.8353V13.944H55.0433V19.704H50.4993Z" fill="url(#paint0_linear_75_665)"/>
<defs>
<linearGradient id="paint0_linear_75_665" x1="39" y1="-1" x2="39" y2="28" gradientUnits="userSpaceOnUse">
<stop stop-color="#4614E8"/>
<stop offset="1" stop-color="#BCA7FF"/>
</linearGradient>
</defs>
</svg>
