<svg width="58" height="10" viewBox="0 0 58 10" fill="none" xmlns="http://www.w3.org/2000/svg">
<path d="M7.83984 2.80078C7.58594 2.70312 7.30273 2.61523 6.99023 2.53711C6.7207 2.4707 6.40039 2.41016 6.0293 2.35547C5.66211 2.29688 5.25586 2.26758 4.81055 2.26758C4.14258 2.26758 3.6543 2.32031 3.3457 2.42578C3.03711 2.53125 2.88281 2.70898 2.88281 2.95898C2.88281 3.09961 2.92969 3.2168 3.02344 3.31055C3.12109 3.4043 3.25977 3.48438 3.43945 3.55078C3.61914 3.61328 3.83984 3.66797 4.10156 3.71484C4.36328 3.75781 4.66211 3.80273 4.99805 3.84961C5.80273 3.96289 6.47461 4.09375 7.01367 4.24219C7.55664 4.39062 7.99219 4.57031 8.32031 4.78125C8.64844 4.99219 8.88086 5.24219 9.01758 5.53125C9.1582 5.81641 9.22852 6.1543 9.22852 6.54492C9.22852 7.4707 8.84961 8.15039 8.0918 8.58398C7.33789 9.01758 6.20508 9.23438 4.69336 9.23438C4.31445 9.23438 3.96289 9.21875 3.63867 9.1875C3.31445 9.16016 3.01562 9.12305 2.74219 9.07617C2.46875 9.0293 2.2207 8.97656 1.99805 8.91797C1.77539 8.85547 1.57617 8.79297 1.40039 8.73047C0.986328 8.58203 0.646484 8.41406 0.380859 8.22656L1.44727 6.67969C1.70117 6.80078 1.99023 6.91016 2.31445 7.00781C2.5918 7.08984 2.91992 7.16406 3.29883 7.23047C3.68164 7.29688 4.10742 7.33008 4.57617 7.33008C4.91992 7.33008 5.24023 7.32031 5.53711 7.30078C5.83789 7.28125 6.0957 7.24219 6.31055 7.18359C6.5293 7.125 6.70117 7.04492 6.82617 6.94336C6.95117 6.8418 7.01367 6.70898 7.01367 6.54492C7.01367 6.4043 6.96875 6.29492 6.87891 6.2168C6.78906 6.13477 6.64453 6.06641 6.44531 6.01172C6.25 5.95312 5.99805 5.90234 5.68945 5.85938C5.38086 5.81641 5.00781 5.76172 4.57031 5.69531C3.83594 5.57812 3.21875 5.44336 2.71875 5.29102C2.22266 5.13477 1.82227 4.95117 1.51758 4.74023C1.21289 4.52539 0.994141 4.27734 0.861328 3.99609C0.732422 3.71484 0.667969 3.38867 0.667969 3.01758C0.667969 2.64258 0.738281 2.29297 0.878906 1.96875C1.01953 1.64453 1.24805 1.36523 1.56445 1.13086C1.88477 0.892578 2.30078 0.705078 2.8125 0.568359C3.32422 0.431641 3.95117 0.363281 4.69336 0.363281C5.06445 0.363281 5.4082 0.376953 5.72461 0.404297C6.04102 0.427734 6.33203 0.460938 6.59766 0.503906C6.86719 0.542969 7.10938 0.589844 7.32422 0.644531C7.54297 0.699219 7.73828 0.753906 7.91016 0.808594C8.30859 0.9375 8.64062 1.08594 8.90625 1.25391L7.83984 2.80078ZM12.4404 0.597656H14.6552V9H12.4404V0.597656ZM18.2187 9V0.597656H23.6503C24.2011 0.597656 24.6991 0.652344 25.1445 0.761719C25.5937 0.871094 25.9745 1.04297 26.287 1.27734C26.5995 1.51172 26.8398 1.81055 27.0077 2.17383C27.1796 2.53711 27.2655 2.97266 27.2655 3.48047C27.2655 3.81641 27.2187 4.11133 27.1249 4.36523C27.0351 4.61914 26.912 4.83984 26.7558 5.02734C26.5995 5.21484 26.4179 5.37305 26.2109 5.50195C26.0077 5.62695 25.7948 5.73047 25.5722 5.8125L27.4003 9H24.9159L23.2929 6.17578H20.4335V9H18.2187ZM20.4335 2.50195V4.45898H23.6503C24.1073 4.45898 24.4452 4.38672 24.664 4.24219C24.8827 4.09375 24.9921 3.83984 24.9921 3.48047C24.9921 3.12109 24.8827 2.86914 24.664 2.72461C24.4452 2.57617 24.1073 2.50195 23.6503 2.50195H20.4335ZM30.7352 0.597656H32.9501V9H30.7352V0.597656ZM41.1424 9.23438C40.2948 9.23438 39.576 9.14453 38.9862 8.96484C38.4002 8.78125 37.9237 8.51562 37.5565 8.16797C37.1893 7.82031 36.9237 7.39453 36.7596 6.89062C36.5955 6.38281 36.5135 5.80469 36.5135 5.15625V0.597656H38.7284V5.15625C38.7284 5.53906 38.7674 5.86719 38.8455 6.14062C38.9237 6.41406 39.0565 6.63867 39.244 6.81445C39.4315 6.99023 39.6795 7.12109 39.9881 7.20703C40.2967 7.28906 40.6815 7.33008 41.1424 7.33008C41.6034 7.33008 41.9881 7.28906 42.2967 7.20703C42.6053 7.12109 42.8534 6.99023 43.0409 6.81445C43.2284 6.63867 43.3612 6.41406 43.4393 6.14062C43.5174 5.86719 43.5565 5.53906 43.5565 5.15625V0.597656H45.7713V5.15625C45.7713 5.80469 45.6893 6.38281 45.5252 6.89062C45.3612 7.39453 45.0955 7.82031 44.7284 8.16797C44.3612 8.51562 43.8827 8.78125 43.2928 8.96484C42.7069 9.14453 41.9901 9.23438 41.1424 9.23438ZM56.3836 2.80078C56.1297 2.70312 55.8465 2.61523 55.534 2.53711C55.2645 2.4707 54.9441 2.41016 54.573 2.35547C54.2059 2.29688 53.7996 2.26758 53.3543 2.26758C52.6863 2.26758 52.198 2.32031 51.8895 2.42578C51.5809 2.53125 51.4266 2.70898 51.4266 2.95898C51.4266 3.09961 51.4734 3.2168 51.5672 3.31055C51.6648 3.4043 51.8035 3.48438 51.9832 3.55078C52.1629 3.61328 52.3836 3.66797 52.6453 3.71484C52.907 3.75781 53.2059 3.80273 53.5418 3.84961C54.3465 3.96289 55.0184 4.09375 55.5574 4.24219C56.1004 4.39062 56.5359 4.57031 56.8641 4.78125C57.1922 4.99219 57.4246 5.24219 57.5613 5.53125C57.702 5.81641 57.7723 6.1543 57.7723 6.54492C57.7723 7.4707 57.3934 8.15039 56.6355 8.58398C55.8816 9.01758 54.7488 9.23438 53.2371 9.23438C52.8582 9.23438 52.5066 9.21875 52.1824 9.1875C51.8582 9.16016 51.5594 9.12305 51.2859 9.07617C51.0125 9.0293 50.7645 8.97656 50.5418 8.91797C50.3191 8.85547 50.1199 8.79297 49.9441 8.73047C49.5301 8.58203 49.1902 8.41406 48.9246 8.22656L49.991 6.67969C50.2449 6.80078 50.534 6.91016 50.8582 7.00781C51.1355 7.08984 51.4637 7.16406 51.8426 7.23047C52.2254 7.29688 52.6512 7.33008 53.1199 7.33008C53.4637 7.33008 53.784 7.32031 54.0809 7.30078C54.3816 7.28125 54.6395 7.24219 54.8543 7.18359C55.073 7.125 55.2449 7.04492 55.3699 6.94336C55.4949 6.8418 55.5574 6.70898 55.5574 6.54492C55.5574 6.4043 55.5125 6.29492 55.4227 6.2168C55.3328 6.13477 55.1883 6.06641 54.9891 6.01172C54.7938 5.95312 54.5418 5.90234 54.2332 5.85938C53.9246 5.81641 53.5516 5.76172 53.1141 5.69531C52.3797 5.57812 51.7625 5.44336 51.2625 5.29102C50.7664 5.13477 50.366 4.95117 50.0613 4.74023C49.7566 4.52539 49.5379 4.27734 49.4051 3.99609C49.2762 3.71484 49.2117 3.38867 49.2117 3.01758C49.2117 2.64258 49.282 2.29297 49.4227 1.96875C49.5633 1.64453 49.7918 1.36523 50.1082 1.13086C50.4285 0.892578 50.8445 0.705078 51.3563 0.568359C51.868 0.431641 52.4949 0.363281 53.2371 0.363281C53.6082 0.363281 53.952 0.376953 54.2684 0.404297C54.5848 0.427734 54.8758 0.460938 55.1414 0.503906C55.4109 0.542969 55.6531 0.589844 55.868 0.644531C56.0867 0.699219 56.282 0.753906 56.4539 0.808594C56.8523 0.9375 57.1844 1.08594 57.45 1.25391L56.3836 2.80078Z" fill="#7247FF"/>
<path d="M7.83984 2.80078C7.58594 2.70312 7.30273 2.61523 6.99023 2.53711C6.7207 2.4707 6.40039 2.41016 6.0293 2.35547C5.66211 2.29688 5.25586 2.26758 4.81055 2.26758C4.14258 2.26758 3.6543 2.32031 3.3457 2.42578C3.03711 2.53125 2.88281 2.70898 2.88281 2.95898C2.88281 3.09961 2.92969 3.2168 3.02344 3.31055C3.12109 3.4043 3.25977 3.48438 3.43945 3.55078C3.61914 3.61328 3.83984 3.66797 4.10156 3.71484C4.36328 3.75781 4.66211 3.80273 4.99805 3.84961C5.80273 3.96289 6.47461 4.09375 7.01367 4.24219C7.55664 4.39062 7.99219 4.57031 8.32031 4.78125C8.64844 4.99219 8.88086 5.24219 9.01758 5.53125C9.1582 5.81641 9.22852 6.1543 9.22852 6.54492C9.22852 7.4707 8.84961 8.15039 8.0918 8.58398C7.33789 9.01758 6.20508 9.23438 4.69336 9.23438C4.31445 9.23438 3.96289 9.21875 3.63867 9.1875C3.31445 9.16016 3.01562 9.12305 2.74219 9.07617C2.46875 9.0293 2.2207 8.97656 1.99805 8.91797C1.77539 8.85547 1.57617 8.79297 1.40039 8.73047C0.986328 8.58203 0.646484 8.41406 0.380859 8.22656L1.44727 6.67969C1.70117 6.80078 1.99023 6.91016 2.31445 7.00781C2.5918 7.08984 2.91992 7.16406 3.29883 7.23047C3.68164 7.29688 4.10742 7.33008 4.57617 7.33008C4.91992 7.33008 5.24023 7.32031 5.53711 7.30078C5.83789 7.28125 6.0957 7.24219 6.31055 7.18359C6.5293 7.125 6.70117 7.04492 6.82617 6.94336C6.95117 6.8418 7.01367 6.70898 7.01367 6.54492C7.01367 6.4043 6.96875 6.29492 6.87891 6.2168C6.78906 6.13477 6.64453 6.06641 6.44531 6.01172C6.25 5.95312 5.99805 5.90234 5.68945 5.85938C5.38086 5.81641 5.00781 5.76172 4.57031 5.69531C3.83594 5.57812 3.21875 5.44336 2.71875 5.29102C2.22266 5.13477 1.82227 4.95117 1.51758 4.74023C1.21289 4.52539 0.994141 4.27734 0.861328 3.99609C0.732422 3.71484 0.667969 3.38867 0.667969 3.01758C0.667969 2.64258 0.738281 2.29297 0.878906 1.96875C1.01953 1.64453 1.24805 1.36523 1.56445 1.13086C1.88477 0.892578 2.30078 0.705078 2.8125 0.568359C3.32422 0.431641 3.95117 0.363281 4.69336 0.363281C5.06445 0.363281 5.4082 0.376953 5.72461 0.404297C6.04102 0.427734 6.33203 0.460938 6.59766 0.503906C6.86719 0.542969 7.10938 0.589844 7.32422 0.644531C7.54297 0.699219 7.73828 0.753906 7.91016 0.808594C8.30859 0.9375 8.64062 1.08594 8.90625 1.25391L7.83984 2.80078ZM12.4404 0.597656H14.6552V9H12.4404V0.597656ZM18.2187 9V0.597656H23.6503C24.2011 0.597656 24.6991 0.652344 25.1445 0.761719C25.5937 0.871094 25.9745 1.04297 26.287 1.27734C26.5995 1.51172 26.8398 1.81055 27.0077 2.17383C27.1796 2.53711 27.2655 2.97266 27.2655 3.48047C27.2655 3.81641 27.2187 4.11133 27.1249 4.36523C27.0351 4.61914 26.912 4.83984 26.7558 5.02734C26.5995 5.21484 26.4179 5.37305 26.2109 5.50195C26.0077 5.62695 25.7948 5.73047 25.5722 5.8125L27.4003 9H24.9159L23.2929 6.17578H20.4335V9H18.2187ZM20.4335 2.50195V4.45898H23.6503C24.1073 4.45898 24.4452 4.38672 24.664 4.24219C24.8827 4.09375 24.9921 3.83984 24.9921 3.48047C24.9921 3.12109 24.8827 2.86914 24.664 2.72461C24.4452 2.57617 24.1073 2.50195 23.6503 2.50195H20.4335ZM30.7352 0.597656H32.9501V9H30.7352V0.597656ZM41.1424 9.23438C40.2948 9.23438 39.576 9.14453 38.9862 8.96484C38.4002 8.78125 37.9237 8.51562 37.5565 8.16797C37.1893 7.82031 36.9237 7.39453 36.7596 6.89062C36.5955 6.38281 36.5135 5.80469 36.5135 5.15625V0.597656H38.7284V5.15625C38.7284 5.53906 38.7674 5.86719 38.8455 6.14062C38.9237 6.41406 39.0565 6.63867 39.244 6.81445C39.4315 6.99023 39.6795 7.12109 39.9881 7.20703C40.2967 7.28906 40.6815 7.33008 41.1424 7.33008C41.6034 7.33008 41.9881 7.28906 42.2967 7.20703C42.6053 7.12109 42.8534 6.99023 43.0409 6.81445C43.2284 6.63867 43.3612 6.41406 43.4393 6.14062C43.5174 5.86719 43.5565 5.53906 43.5565 5.15625V0.597656H45.7713V5.15625C45.7713 5.80469 45.6893 6.38281 45.5252 6.89062C45.3612 7.39453 45.0955 7.82031 44.7284 8.16797C44.3612 8.51562 43.8827 8.78125 43.2928 8.96484C42.7069 9.14453 41.9901 9.23438 41.1424 9.23438ZM56.3836 2.80078C56.1297 2.70312 55.8465 2.61523 55.534 2.53711C55.2645 2.4707 54.9441 2.41016 54.573 2.35547C54.2059 2.29688 53.7996 2.26758 53.3543 2.26758C52.6863 2.26758 52.198 2.32031 51.8895 2.42578C51.5809 2.53125 51.4266 2.70898 51.4266 2.95898C51.4266 3.09961 51.4734 3.2168 51.5672 3.31055C51.6648 3.4043 51.8035 3.48438 51.9832 3.55078C52.1629 3.61328 52.3836 3.66797 52.6453 3.71484C52.907 3.75781 53.2059 3.80273 53.5418 3.84961C54.3465 3.96289 55.0184 4.09375 55.5574 4.24219C56.1004 4.39062 56.5359 4.57031 56.8641 4.78125C57.1922 4.99219 57.4246 5.24219 57.5613 5.53125C57.702 5.81641 57.7723 6.1543 57.7723 6.54492C57.7723 7.4707 57.3934 8.15039 56.6355 8.58398C55.8816 9.01758 54.7488 9.23438 53.2371 9.23438C52.8582 9.23438 52.5066 9.21875 52.1824 9.1875C51.8582 9.16016 51.5594 9.12305 51.2859 9.07617C51.0125 9.0293 50.7645 8.97656 50.5418 8.91797C50.3191 8.85547 50.1199 8.79297 49.9441 8.73047C49.5301 8.58203 49.1902 8.41406 48.9246 8.22656L49.991 6.67969C50.2449 6.80078 50.534 6.91016 50.8582 7.00781C51.1355 7.08984 51.4637 7.16406 51.8426 7.23047C52.2254 7.29688 52.6512 7.33008 53.1199 7.33008C53.4637 7.33008 53.784 7.32031 54.0809 7.30078C54.3816 7.28125 54.6395 7.24219 54.8543 7.18359C55.073 7.125 55.2449 7.04492 55.3699 6.94336C55.4949 6.8418 55.5574 6.70898 55.5574 6.54492C55.5574 6.4043 55.5125 6.29492 55.4227 6.2168C55.3328 6.13477 55.1883 6.06641 54.9891 6.01172C54.7938 5.95312 54.5418 5.90234 54.2332 5.85938C53.9246 5.81641 53.5516 5.76172 53.1141 5.69531C52.3797 5.57812 51.7625 5.44336 51.2625 5.29102C50.7664 5.13477 50.366 4.95117 50.0613 4.74023C49.7566 4.52539 49.5379 4.27734 49.4051 3.99609C49.2762 3.71484 49.2117 3.38867 49.2117 3.01758C49.2117 2.64258 49.282 2.29297 49.4227 1.96875C49.5633 1.64453 49.7918 1.36523 50.1082 1.13086C50.4285 0.892578 50.8445 0.705078 51.3563 0.568359C51.868 0.431641 52.4949 0.363281 53.2371 0.363281C53.6082 0.363281 53.952 0.376953 54.2684 0.404297C54.5848 0.427734 54.8758 0.460938 55.1414 0.503906C55.4109 0.542969 55.6531 0.589844 55.868 0.644531C56.0867 0.699219 56.282 0.753906 56.4539 0.808594C56.8523 0.9375 57.1844 1.08594 57.45 1.25391L56.3836 2.80078Z" fill="url(#paint0_linear_55_1232)"/>
<defs>
<linearGradient id="paint0_linear_55_1232" x1="40" y1="-9" x2="40" y2="20" gradientUnits="userSpaceOnUse">
<stop stop-color="#4614E8"/>
<stop offset="1" stop-color="#BCA7FF"/>
</linearGradient>
</defs>
</svg>
